<?xml version="1.0" encoding="UTF-8" standalone="no"?><!DOCTYPE svg PUBLIC "-//W3C//DTD SVG 1.1//EN" "http://www.w3.org/Graphics/SVG/1.1/DTD/svg11.dtd"><svg width="100%" height="100%" viewBox="0 0 693 994" version="1.1" xmlns="http://www.w3.org/2000/svg" xmlns:xlink="http://www.w3.org/1999/xlink" xml:space="preserve" xmlns:serif="http://www.serif.com/" style="fill-rule:evenodd;clip-rule:evenodd;stroke-linecap:round;stroke-linejoin:round;stroke-miterlimit:1.5;"><g><g><g><path d="M692.811,55.425l0,882.589c0,30.59 -24.835,55.425 -55.425,55.425l-581.961,0c-30.59,0 -55.425,-24.835 -55.425,-55.425l0,-882.589c0,-30.59 24.835,-55.425 55.425,-55.425l581.961,0c30.59,0 55.425,24.835 55.425,55.425Z" style="fill:#3d3d3d;"/><path d="M651.837,88.027l0,817.384c0,26.972 -21.898,48.869 -48.869,48.869l-513.126,0c-26.972,0 -48.869,-21.898 -48.869,-48.869l0,-817.384c0,-26.972 21.898,-48.869 48.869,-48.869l513.126,0c26.972,0 48.869,21.898 48.869,48.869Z" style="fill:#ffeccd;"/></g><g><path d="M213.358,149.998l0,82.374c0,2.526 -2.051,4.576 -4.576,4.576l-82.374,0c-2.526,0 -4.576,-2.051 -4.576,-4.576l0,-82.374c0,-2.526 2.051,-4.576 4.576,-4.576l82.374,0c2.526,0 4.576,2.051 4.576,4.576Z" style="fill:none;stroke:#3d3d3d;stroke-width:8.33px;"/><path d="M255.458,145.421l279.857,0" style="fill:none;stroke:#3d3d3d;stroke-width:6.25px;"/><path d="M254.836,175.93l279.857,0" style="fill:none;stroke:#3d3d3d;stroke-width:6.25px;"/><path d="M255.458,206.439l279.857,0" style="fill:none;stroke:#3d3d3d;stroke-width:6.25px;"/><path d="M255.458,236.948l279.857,0" style="fill:none;stroke:#3d3d3d;stroke-width:6.25px;"/></g><g><path d="M213.358,339.526l0,82.374c0,2.526 -2.051,4.576 -4.576,4.576l-82.374,0c-2.526,0 -4.576,-2.051 -4.576,-4.576l0,-82.374c0,-2.526 2.051,-4.576 4.576,-4.576l82.374,0c2.526,0 4.576,2.051 4.576,4.576Z" style="fill:none;stroke:#3d3d3d;stroke-width:8.33px;"/><path d="M255.458,334.95l279.857,0" style="fill:none;stroke:#3d3d3d;stroke-width:6.25px;"/><path d="M254.836,365.458l279.857,0" style="fill:none;stroke:#3d3d3d;stroke-width:6.25px;"/><path d="M255.458,395.967l279.857,0" style="fill:none;stroke:#3d3d3d;stroke-width:6.25px;"/><path d="M255.458,426.476l279.857,0" style="fill:none;stroke:#3d3d3d;stroke-width:6.25px;"/></g><g><path d="M213.358,529.054l0,82.374c0,2.526 -2.051,4.576 -4.576,4.576l-82.374,0c-2.526,0 -4.576,-2.051 -4.576,-4.576l0,-82.374c0,-2.526 2.051,-4.576 4.576,-4.576l82.374,0c2.526,0 4.576,2.051 4.576,4.576Z" style="fill:none;stroke:#3d3d3d;stroke-width:8.33px;"/><path d="M255.458,524.478l279.857,0" style="fill:none;stroke:#3d3d3d;stroke-width:6.25px;"/><path d="M254.836,554.987l279.857,0" style="fill:none;stroke:#3d3d3d;stroke-width:6.25px;"/><path d="M255.458,585.495l279.857,0" style="fill:none;stroke:#3d3d3d;stroke-width:6.25px;"/><path d="M255.458,616.004l279.857,0" style="fill:none;stroke:#3d3d3d;stroke-width:6.25px;"/></g></g><path d="M144.895,168.635l34.755,46.275l76.657,-127.474" style="fill:none;stroke:#00acee;stroke-width:12.5px;"/><path d="M328.574,733.57l0,23.695l11.504,0c32.161,0 32.161,-47.39 0,-47.39l-11.241,0m61.772,45.398c0,0 34.579,6.901 34.579,-25.682c0,-30.441 -40.443,-30.441 -40.443,-0c-0,16.366 16.921,12.751 16.921,12.751m49.262,14.922l0,-47.39l30.324,47.39l0,-47.39m54.063,0l-29.737,0l21.927,25.54l-20.527,2.728l0,19.122l28.337,0m0,25.412l-206.742,0" style="fill:none;stroke:#222;stroke-width:8.33px;"/><g><g><path d="M211.47,807.23l0,64.048c0,0 0.11,6.123 6.1,6.123l75.405,0c5.657,0 5.572,-6.123 5.572,-6.123l0,-64.048c0,0 0.193,-6.123 -5.572,-6.123l-75.405,0c-6.315,0 -6.1,6.123 -6.1,6.123Zm0,17.271l87.078,0" style="fill:none;stroke:#00acee;stroke-width:8.33px;"/><path d="M221.979,809.217c2.061,0 3.735,1.723 3.735,3.845c0,2.122 -1.674,3.845 -3.735,3.845c-2.061,0 -3.735,-1.723 -3.735,-3.845c0,-2.122 1.674,-3.845 3.735,-3.845Zm12.511,0c2.061,0 3.735,1.723 3.735,3.845c0,2.122 -1.674,3.845 -3.735,3.845c-2.061,0 -3.735,-1.723 -3.735,-3.845c0,-2.122 1.674,-3.845 3.735,-3.845Zm12.511,0c2.061,0 3.735,1.723 3.735,3.845c0,2.122 -1.674,3.845 -3.735,3.845c-2.061,0 -3.735,-1.723 -3.735,-3.845c0,-2.122 1.674,-3.845 3.735,-3.845Z" style="fill:#00acee;"/><path d="M256.308,851.207l-19.83,13.323l0,-26.646l19.83,13.323Z" style="fill:none;stroke:#00acee;stroke-width:8.33px;"/></g><path d="M90.441,731.319l0,99.638l84.284,36.192l0,-103.901l-84.284,-31.929Zm115.789,-15.589l46.123,16.449l-77.628,31.069l-84.284,-31.929l51.975,-18.913m109.938,74.296l-0,-54.523l-77.628,31.069l0,103.901l20.68,-10.643m-33.728,-124.555l-35.134,15.98l0,45.094l9.05,-12.657l10.925,14.856l0,-40.617l31.089,-13.904m33.13,39.089l0,-25.185l-33.13,-13.904m0,0c0,0 -31.786,-14.568 -35.191,-28.296c-6.264,-25.253 18.462,-31.689 24.725,-6.436l10.466,34.732Zm0,-0c0,0 25.255,-11.389 28.66,-25.117c6.264,-25.253 -17.146,-34.868 -23.41,-9.615l-5.25,34.732Zm16.119,-9.594l36.986,16.822l0,34.283" style="fill:none;stroke:#00acee;stroke-width:8.33px;"/></g></g></svg>