<?xml version="1.0" encoding="UTF-8" standalone="no"?><!DOCTYPE svg PUBLIC "-//W3C//DTD SVG 1.1//EN" "http://www.w3.org/Graphics/SVG/1.1/DTD/svg11.dtd"><svg width="100%" height="100%" viewBox="0 0 4075 3805" version="1.1" xmlns="http://www.w3.org/2000/svg" xmlns:xlink="http://www.w3.org/1999/xlink" xml:space="preserve" xmlns:serif="http://www.serif.com/" style="fill-rule:evenodd;clip-rule:evenodd;stroke-linecap:round;stroke-linejoin:round;stroke-miterlimit:1.5;"><g><g><path d="M3511.671,26.042c108.879,0 158.646,105.221 158.646,161.721l0,480.1l-3644.271,0l0,-487.267c0,-63.429 70.988,-154.55 148.954,-154.55l3336.675,0l-0.004,-0.004Z" style="fill:#003b82;"/><path d="M2676.654,3299.713l-2486.929,0c-90.337,0 -163.683,-73.346 -163.683,-163.683l0,-2946.3c0,-90.337 73.346,-163.683 163.683,-163.683l3316.904,-0c90.338,0 163.683,73.346 163.683,163.683l0,1936.263" style="fill:none;stroke:#003b82;stroke-width:52.08px;"/></g><g><g><path d="M1786.029,1719.308l370.154,-419.938l602.933,377.729l465.092,-574.788" style="fill:none;stroke:#003b82;stroke-width:34.71px;"/><path d="M2159.5,1247.533c34.3,0 62.146,27.846 62.146,62.146c0,34.3 -27.846,62.146 -62.146,62.146c-34.3,0 -62.146,-27.846 -62.146,-62.146c0,-34.3 27.846,-62.146 62.146,-62.146Zm586.842,353.196c34.3,0 62.146,27.846 62.146,62.146c0,34.3 -27.846,62.146 -62.146,62.146c-34.3,0 -62.146,-27.846 -62.146,-62.146c0,-34.3 27.846,-62.146 62.146,-62.146Zm481.542,-560.567c34.3,0 62.146,27.846 62.146,62.146c0,34.3 -27.846,62.146 -62.146,62.146c-34.3,0 -62.146,-27.846 -62.146,-62.146c0,-34.3 27.846,-62.146 62.146,-62.146Zm-1427.6,617c34.3,0 62.146,27.846 62.146,62.146c0,34.3 -27.846,62.146 -62.146,62.146c-34.3,0 -62.146,-27.846 -62.146,-62.146c0,-34.3 27.846,-62.146 62.146,-62.146Z" style="fill:#003b82;"/></g><path d="M2561.133,3628.796c-249.567,-173.858 -413.013,-462.913 -413.013,-789.846c0,-514.979 405.55,-935.987 914.425,-960.796l0,950.238l-501.412,800.4l0,0.004Zm571.579,-1751.533c520.475,12.046 939.313,438.342 939.313,961.688c0,82.771 -10.475,163.117 -30.175,239.779l-909.133,-232.883l0,-968.583l-0.004,0Zm889.575,1267.579c-127.917,381.146 -488.217,656.058 -912.213,656.058c-179.325,0 -347.254,-49.175 -491.029,-134.767l475.45,-758.958l927.792,237.662l0,0.004Z" style="fill:#003b82;"/><path d="M497.208,2206.496l0,943.65l-270.671,0l0,-943.65l270.671,0Zm492.125,-657.817l0,1601.467l-270.671,0l0,-1601.467l270.671,0Zm492.125,415.05l0,1186.417l-270.671,0l0,-1186.417l270.671,0Z" style="fill:#cecece;"/></g><g><path d="M261.154,346.95l253.288,-158.971l0,317.942l-253.288,-158.971Z" style="fill:#fff;"/><path d="M969.275,348.829l-253.288,158.971l0,-317.942l253.288,158.971Z" style="fill:#fff;"/></g></g></svg>