<svg width="1400" height="1400" viewBox="0 0 1400 1400" fill="none" xmlns="http://www.w3.org/2000/svg">
<path d="M0 220C0 98.4974 98.4974 0 220 0H1180C1301.5 0 1400 98.4974 1400 220V1180C1400 1301.5 1301.5 1400 1180 1400H220C98.4974 1400 0 1301.5 0 1180V220Z" fill="#24222C"/>
<path d="M535.17 529.567C431.799 529.567 348 445.717 348 342.284C348 238.85 431.799 155 535.17 155H705V529.567H535.17Z" fill="#FF3737"/>
<path fill-rule="evenodd" clip-rule="evenodd" d="M705 155H874.83C978.201 155 1062 238.85 1062 342.284C1062 445.717 978.201 529.567 874.83 529.567H705V155Z" fill="#FF6551"/>
<path d="M348 708.175C348 609.533 427.917 529.567 526.5 529.567H705V886.784H526.5C427.917 886.784 348 806.818 348 708.175Z" fill="#B04AFF"/>
<path d="M705 708.175C705 609.533 784.917 529.567 883.5 529.567C982.083 529.567 1062 609.533 1062 708.175C1062 806.818 982.083 886.784 883.5 886.784C784.917 886.784 705 806.818 705 708.175Z" fill="#00ACEE"/>
<path d="M348 1065.39C348 966.749 427.917 886.784 526.5 886.784H705V1065.39C705 1164.03 625.083 1244 526.5 1244C427.917 1244 348 1164.03 348 1065.39Z" fill="#00FF73"/>
</svg>
