<?xml version="1.0" encoding="UTF-8" standalone="no"?><!DOCTYPE svg PUBLIC "-//W3C//DTD SVG 1.1//EN" "http://www.w3.org/Graphics/SVG/1.1/DTD/svg11.dtd"><svg width="100%" height="100%" viewBox="0 0 591 591" version="1.1" xmlns="http://www.w3.org/2000/svg" xmlns:xlink="http://www.w3.org/1999/xlink" xml:space="preserve" xmlns:serif="http://www.serif.com/" style="fill-rule:evenodd;clip-rule:evenodd;stroke-linejoin:round;stroke-miterlimit:2;"><g><circle cx="295.276" cy="295.276" r="295.276" style="fill:#434343;"/><path d="M301.889,136.522c65.979,-19.822 69.692,14.763 69.692,38.736l0,221.662c0,27.401 -7.03,76.078 -56.49,59.716l-173.379,-55.167c-87.229,-28.719 -89.071,-186.485 0,-212.937l160.177,-52.011Zm144.551,158.753l-47.653,-47.653c-14.875,-14.875 9.274,-39.024 24.149,-24.149l47.653,47.653l47.653,-47.653c14.875,-14.875 39.024,9.274 24.149,24.149l-47.653,47.653l47.306,47.306c15.541,15.541 -8.607,39.69 -24.149,24.149l-47.306,-47.306l-47.306,47.306c-15.541,15.541 -39.69,-8.607 -24.149,-24.149l47.306,-47.306Z" style="fill:#fff;"/></g></svg>