<?xml version="1.0" encoding="UTF-8" standalone="no"?><!DOCTYPE svg PUBLIC "-//W3C//DTD SVG 1.1//EN" "http://www.w3.org/Graphics/SVG/1.1/DTD/svg11.dtd"><svg width="100%" height="100%" viewBox="0 0 237 237" version="1.1" xmlns="http://www.w3.org/2000/svg" xmlns:xlink="http://www.w3.org/1999/xlink" xml:space="preserve" xmlns:serif="http://www.serif.com/" style="fill-rule:evenodd;clip-rule:evenodd;stroke-linejoin:round;stroke-miterlimit:2;"><path d="M218.504,47.76l0,140.7c0,16.623 -13.495,30.118 -30.118,30.118l-140.551,0c-16.623,0 -30.118,-13.495 -30.118,-30.118l0,-140.7c0,-16.623 13.495,-30.118 30.118,-30.118l140.551,0c16.623,0 30.118,13.495 30.118,30.118Zm-19.538,113.106c0.685,-5.154 1.366,-10.804 -3.314,-15.158l-22.22,-15.432c-2.802,-1.867 -7.048,-0.169 -10.162,1.458c0,0 -22.759,11.892 -27.267,8.328l-47.543,-37.745c-4.907,-4.907 6.177,-25.247 6.177,-25.247c1.769,-3.114 -0.49,-8.566 -3.717,-10.647l-26.487,-18.36c-4.247,-3.006 -13.139,0.453 -16.741,3.94l-8.958,11.51c-2.481,2.481 -2.257,7.151 -1.276,9.563c0,0 3.446,28.13 53.129,71.8c47.302,41.577 84.843,43.371 84.843,43.371c6.215,3.116 12.807,-1.659 12.807,-1.659c0,0 9.951,-19.866 10.73,-25.724Z" style="fill:#fff;"/></svg>