<?xml version="1.0" encoding="UTF-8" standalone="no"?><!DOCTYPE svg PUBLIC "-//W3C//DTD SVG 1.1//EN" "http://www.w3.org/Graphics/SVG/1.1/DTD/svg11.dtd"><svg width="100%" height="100%" viewBox="0 0 864 844" version="1.1" xmlns="http://www.w3.org/2000/svg" xmlns:xlink="http://www.w3.org/1999/xlink" xml:space="preserve" xmlns:serif="http://www.serif.com/" style="fill-rule:evenodd;clip-rule:evenodd;stroke-linecap:round;stroke-linejoin:round;stroke-miterlimit:1.5;"><path d="M211.313,462.825l431.571,0m-366.586,-456.575l0,456.575m305.287,-456.575l0,456.575m-305.287,-456.575l305.287,0m-281.087,689.064l0,142.07m242.256,-142.07l0,142.07m-331.441,0l431.571,0m-61.299,-734.476l275.745,0l0,592.405l-851.08,0l0,-592.405l270.049,0m102.325,519.974l96.951,0m-469.325,-69.639l851.08,0" style="fill:none;stroke:#11398b;stroke-width:12.5px;"/><path d="M381.919,243.754l-15.408,-0l0,-18.433l14.667,0c0.996,-6.238 3.235,-12.064 6.454,-17.216l-9.892,-9.892l13.034,-13.034l9.523,9.523c5.181,-3.663 11.143,-6.293 17.585,-7.591l0,-13.161l18.433,0l0,13.161c6.442,1.297 12.404,3.928 17.585,7.591l9.523,-9.523l13.034,13.034l-9.892,9.892c3.219,5.152 5.458,10.978 6.454,17.216l14.667,0l0,18.433l-15.408,0c-1.402,5.739 -3.869,11.063 -7.182,15.748l11.361,11.361l-13.034,13.034l-11.73,-11.73c-4.642,2.901 -9.832,5.006 -15.378,6.123l-0,16.836l-18.433,0l0,-16.836c-5.546,-1.117 -10.736,-3.222 -15.378,-6.123l-11.73,11.73l-13.034,-13.034l11.361,-11.361c-3.312,-4.685 -5.78,-10.008 -7.182,-15.748Zm45.18,-28.21c-9.469,0 -17.156,7.687 -17.156,17.156c0,9.469 7.687,17.156 17.156,17.156c9.469,0 17.156,-7.687 17.156,-17.156c0,-9.469 -7.687,-17.156 -17.156,-17.156Z" style="fill:none;stroke:#11398b;stroke-width:12.5px;"/></svg>