<?xml version="1.0" encoding="UTF-8" standalone="no"?><!DOCTYPE svg PUBLIC "-//W3C//DTD SVG 1.1//EN" "http://www.w3.org/Graphics/SVG/1.1/DTD/svg11.dtd"><svg width="100%" height="100%" viewBox="0 0 591 591" version="1.1" xmlns="http://www.w3.org/2000/svg" xmlns:xlink="http://www.w3.org/1999/xlink" xml:space="preserve" xmlns:serif="http://www.serif.com/" style="fill-rule:evenodd;clip-rule:evenodd;stroke-linejoin:round;stroke-miterlimit:2;"><g><circle cx="295.276" cy="295.276" r="295.276" style="fill:#434343;"/><path d="M303.741,136.522c65.979,-19.822 69.692,14.763 69.692,38.736l0,221.662c0,27.401 -7.03,76.078 -56.49,59.716l-173.379,-55.167c-87.229,-28.719 -89.071,-186.485 0,-212.937l160.177,-52.011Zm131.473,278.514c45.423,-20.752 77.018,-66.596 77.018,-119.76c0,-53.13 -31.554,-98.947 -76.929,-119.719c-27.615,-12.642 -13.841,-31.486 0,-26.287c59.072,22.188 101.154,79.221 101.154,146.006c0,66.818 -42.125,123.875 -101.244,146.04c-11.391,4.271 -21.193,-16.597 0,-26.279Zm-24.005,-217.055c36.496,17.188 61.782,54.311 61.782,97.294c0,42.983 -25.286,80.107 -61.782,97.294c-18.153,8.549 -28.488,-8.598 0,-27.177c22.895,-14.932 38.041,-40.77 38.041,-70.118c0,-29.348 -15.146,-55.186 -38.041,-70.118c-22.895,-14.932 -15.313,-34.388 0,-27.177Z" style="fill:#fff;"/></g></svg>